<svg xmlns="http://www.w3.org/2000/svg" version="1.1" xmlns:xlink="http://www.w3.org/1999/xlink" xmlns:svgjs="http://svgjs.dev/svgjs" width="1000" height="1055" viewBox="0 0 1000 1055"><g transform="matrix(1,0,0,1,0.05562342649687935,0.42791424448853377)"><svg viewBox="0 0 234 247" data-background-color="#000000" preserveAspectRatio="xMidYMid meet" height="1055" width="1000" xmlns="http://www.w3.org/2000/svg" xmlns:xlink="http://www.w3.org/1999/xlink"><g id="tight-bounds" transform="matrix(1,0,0,1,-0.012810031385527054,-0.09997365579206985)"><svg viewBox="0 0 234.0258259131859 247.2" height="247.2" width="234.0258259131859"><g><svg viewBox="0 0 234.0258259131859 247.2" height="247.2" width="234.0258259131859"><g><svg viewBox="0 0 234.0258259131859 247.2" height="247.2" width="234.0258259131859"><g><svg viewBox="0 0 234.0258259131859 247.2" height="247.2" width="234.0258259131859"><g><svg viewBox="0 0 234.0258259131859 247.2" height="247.2" width="234.0258259131859"><path d="M233.478 53.02C232.378 27.36 229.242 20.227 229.242 20.227 219.615-6.202 207.601-0.506 196.808 3.292 177.753 3.446 158.774 9.091 139.762 12.119 99.858 12.581 59.612 4.986 19.906 23.717 16.176 29.464-3.869 24.846 0.663 56.304 1.852 69.39 6.186 83.913 6.054 95.922 6.649 98.026 7.474 93.202 7.826 96.23 9.058 104.39 11.071 100.541 12.722 105.365 10.422 118.246 12.073 128.971 13.646 140.21 10.873 143.135 7.32 141.749 5.724 151.449 5.559 158.479 4.668 157.145 3.689 156.837 2.974 156.632 1.533 157.402 1.775 159.608 2.6 167.152-0.943 171.514 1.28 178.904-0.25 186.91 2.336 193.838 1.984 202.511 1.94 204.255 2.182 205.744 2.567 206.154 4.272 208.361 1.786 212.672 2.05 217.342 19.543 249.262 38.521 227.195 56.444 241.872 61.098 231.608 57.599 245.516 59.458 243.36 60.911 240.846 61.967 251.263 63.606 245.362 63.859 243.668 63.474 239.665 64.376 240.435 64.849 240.846 65.267 240.743 65.333 238.382 65.433 234.841 64.563 237.048 64.332 235.201 66.83 225.861 66.214 248.081 68.557 247.158 68.447 244.438 67.765 240.538 69.162 241.051 70.548 237.151 70.592 233.918 71.825 242.693 71.869 244.592 72.089 245.926 72.441 246.85 76.292 237.305 80.12 250.237 84.158 245.926 86.633 241.205 89.01 248.492 91.518 246.696 92.399 245.259 93.29 242.693 94.137 247.004 104.512 247.928 115.569 244.079 125.405 247.158 151.689 241.41 179.777 249.518 207.491 241.923 214.026 238.998 220.815 234.841 227.185 231.506 227.185 231.506 232.345 222.371 232.345 181.316S233.445 145.393 233.61 112.703C233.775 80.013 234.545 78.679 233.445 53.02Z" opacity="1" fill="#ffdc00" data-fill-palette-color="tertiary"></path><g transform="matrix(1,0,0,1,55.76832,26.230666666666668)"><svg width="122.4891859131859" viewBox="-1 -35 25.600000381469727 40.70000076293945" height="194.73866666666666" data-palette-color="#000000"><path d="M11.1 5.7Q7.25 5.7 4.13 4.38 1 3.05-1 0.55L-1 0.55 4.35-5.85Q7.15-2.2 10.35-2.2L10.35-2.2Q12.55-2.2 13.68-3.5 14.8-4.8 14.8-7.3L14.8-7.3 14.8-27.35 2.7-27.35 2.7-35 24.6-35 24.6-7.9Q24.6-1.1 21.18 2.3 17.75 5.7 11.1 5.7L11.1 5.7Z" opacity="1" transform="matrix(1,0,0,1,0,0)" fill="#000000" class="undefined-text-0" data-fill-palette-color="quaternary" id="text-0"></path></svg></g></svg></g></svg></g></svg></g><g></g></svg></g><defs></defs></svg><rect width="234.0258259131859" height="247.2" fill="none" stroke="none" visibility="hidden"></rect></g></svg></g></svg>